# Hinged sound box - 260 x 206 x 100 mm closed, 5 mm stock, 12 parts, lid open 95 deg
# Units: millimetres. Y up; the front of the box faces +Z. Origin: outer front-left-bottom corner of base A.
mtllib hinged_sound_box.mtl
o A_Base
usemtl Shell_Foamboard
v 0 5 0
v 0 5 -200
v 0 0 -200
v 0 0 0
v 260 0 0
v 260 0 -200
v 260 5 -200
v 260 5 0
v 260 0 0
v 260 5 0
v 0 5 0
v 0 0 0
v 0 0 -200
v 0 5 -200
v 260 5 -200
v 260 0 -200
v 0 0 -200
v 260 0 -200
v 260 0 0
v 0 0 0
v 0 5 0
v 260 5 0
v 260 5 -200
v 0 5 -200
vn -1 0 0
vn 1 0 0
vn 0 0 1
vn 0 0 -1
vn 0 -1 0
vn 0 1 0
f 1//1 2//1 3//1 4//1
f 5//2 6//2 7//2 8//2
f 9//3 10//3 11//3 12//3
f 13//4 14//4 15//4 16//4
f 17//5 18//5 19//5 20//5
f 21//6 22//6 23//6 24//6
o B_Lid
usemtl Lid_Foamboard
v 0 299.7803 -222.9351
v 0 94.5642 -204.981
v 0 95 -200
v 0 300.2161 -217.9541
v 260 300.2161 -217.9541
v 260 95 -200
v 260 94.5642 -204.981
v 260 299.7803 -222.9351
v 260 300.2161 -217.9541
v 260 299.7803 -222.9351
v 0 299.7803 -222.9351
v 0 300.2161 -217.9541
v 0 95 -200
v 0 94.5642 -204.981
v 260 94.5642 -204.981
v 260 95 -200
v 0 95 -200
v 260 95 -200
v 260 300.2161 -217.9541
v 0 300.2161 -217.9541
v 0 299.7803 -222.9351
v 260 299.7803 -222.9351
v 260 94.5642 -204.981
v 0 94.5642 -204.981
vn -1 0 0
vn 1 0 0
vn 0 0.9962 -0.0872
vn 0 -0.9962 0.0872
vn 0 0.0872 0.9962
vn 0 -0.0872 -0.9962
f 25//7 26//7 27//7 28//7
f 29//8 30//8 31//8 32//8
f 33//9 34//9 35//9 36//9
f 37//10 38//10 39//10 40//10
f 41//11 42//11 43//11 44//11
f 45//12 46//12 47//12 48//12
o C1_Back_wall
usemtl Shell_Foamboard
v 0 95 -195
v 0 95 -200
v 0 5 -200
v 0 5 -195
v 260 5 -195
v 260 5 -200
v 260 95 -200
v 260 95 -195
v 260 5 -195
v 260 95 -195
v 0 95 -195
v 0 5 -195
v 0 5 -200
v 0 95 -200
v 260 95 -200
v 260 5 -200
v 0 5 -200
v 260 5 -200
v 260 5 -195
v 0 5 -195
v 0 95 -195
v 260 95 -195
v 260 95 -200
v 0 95 -200
vn -1 0 0
vn 1 0 0
vn 0 0 1
vn 0 0 -1
vn 0 -1 0
vn 0 1 0
f 49//13 50//13 51//13 52//13
f 53//14 54//14 55//14 56//14
f 57//15 58//15 59//15 60//15
f 61//16 62//16 63//16 64//16
f 65//17 66//17 67//17 68//17
f 69//18 70//18 71//18 72//18
o C2_Front_wall
usemtl Shell_Foamboard
v 0 95 0
v 0 95 -5
v 0 5 -5
v 0 5 0
v 260 5 0
v 260 5 -5
v 260 95 -5
v 260 95 0
v 260 5 0
v 260 95 0
v 0 95 0
v 0 5 0
v 0 5 -5
v 0 95 -5
v 260 95 -5
v 260 5 -5
v 0 5 -5
v 260 5 -5
v 260 5 0
v 0 5 0
v 0 95 0
v 260 95 0
v 260 95 -5
v 0 95 -5
vn -1 0 0
vn 1 0 0
vn 0 0 1
vn 0 0 -1
vn 0 -1 0
vn 0 1 0
f 73//19 74//19 75//19 76//19
f 77//20 78//20 79//20 80//20
f 81//21 82//21 83//21 84//21
f 85//22 86//22 87//22 88//22
f 89//23 90//23 91//23 92//23
f 93//24 94//24 95//24 96//24
o D_Closed_end
usemtl Shell_Foamboard
v 0 95 -5
v 0 95 -195
v 0 5 -195
v 0 5 -5
v 5 5 -5
v 5 5 -195
v 5 95 -195
v 5 95 -5
v 5 5 -5
v 5 95 -5
v 0 95 -5
v 0 5 -5
v 0 5 -195
v 0 95 -195
v 5 95 -195
v 5 5 -195
v 0 5 -195
v 5 5 -195
v 5 5 -5
v 0 5 -5
v 0 95 -5
v 5 95 -5
v 5 95 -195
v 0 95 -195
vn -1 0 0
vn 1 0 0
vn 0 0 1
vn 0 0 -1
vn 0 -1 0
vn 0 1 0
f 97//25 98//25 99//25 100//25
f 101//26 102//26 103//26 104//26
f 105//27 106//27 107//27 108//27
f 109//28 110//28 111//28 112//28
f 113//29 114//29 115//29 116//29
f 117//30 118//30 119//30 120//30
o E_Outlet_end_panel
usemtl Shell_Foamboard
v 255 95 -45
v 255 95 -195
v 255 5 -195
v 255 5 -45
v 260 5 -45
v 260 5 -195
v 260 95 -195
v 260 95 -45
v 260 5 -45
v 260 95 -45
v 255 95 -45
v 255 5 -45
v 255 5 -195
v 255 95 -195
v 260 95 -195
v 260 5 -195
v 255 5 -195
v 260 5 -195
v 260 5 -45
v 255 5 -45
v 255 95 -45
v 260 95 -45
v 260 95 -195
v 255 95 -195
vn -1 0 0
vn 1 0 0
vn 0 0 1
vn 0 0 -1
vn 0 -1 0
vn 0 1 0
f 121//31 122//31 123//31 124//31
f 125//32 126//32 127//32 128//32
f 129//33 130//33 131//33 132//33
f 133//34 134//34 135//34 136//34
f 137//35 138//35 139//35 140//35
f 141//36 142//36 143//36 144//36
o F1_Baffle_1
usemtl Baffles_Foamboard
v 35 95 -45
v 35 95 -195
v 35 5 -195
v 35 5 -45
v 40 5 -45
v 40 5 -195
v 40 95 -195
v 40 95 -45
v 40 5 -45
v 40 95 -45
v 35 95 -45
v 35 5 -45
v 35 5 -195
v 35 95 -195
v 40 95 -195
v 40 5 -195
v 35 5 -195
v 40 5 -195
v 40 5 -45
v 35 5 -45
v 35 95 -45
v 40 95 -45
v 40 95 -195
v 35 95 -195
vn -1 0 0
vn 1 0 0
vn 0 0 1
vn 0 0 -1
vn 0 -1 0
vn 0 1 0
f 145//37 146//37 147//37 148//37
f 149//38 150//38 151//38 152//38
f 153//39 154//39 155//39 156//39
f 157//40 158//40 159//40 160//40
f 161//41 162//41 163//41 164//41
f 165//42 166//42 167//42 168//42
o F2_Baffle_2
usemtl Baffles_Foamboard
v 75 95 -5
v 75 95 -155
v 75 5 -155
v 75 5 -5
v 80 5 -5
v 80 5 -155
v 80 95 -155
v 80 95 -5
v 80 5 -5
v 80 95 -5
v 75 95 -5
v 75 5 -5
v 75 5 -155
v 75 95 -155
v 80 95 -155
v 80 5 -155
v 75 5 -155
v 80 5 -155
v 80 5 -5
v 75 5 -5
v 75 95 -5
v 80 95 -5
v 80 95 -155
v 75 95 -155
vn -1 0 0
vn 1 0 0
vn 0 0 1
vn 0 0 -1
vn 0 -1 0
vn 0 1 0
f 169//43 170//43 171//43 172//43
f 173//44 174//44 175//44 176//44
f 177//45 178//45 179//45 180//45
f 181//46 182//46 183//46 184//46
f 185//47 186//47 187//47 188//47
f 189//48 190//48 191//48 192//48
o F3_Baffle_3
usemtl Baffles_Foamboard
v 115 95 -45
v 115 95 -195
v 115 5 -195
v 115 5 -45
v 120 5 -45
v 120 5 -195
v 120 95 -195
v 120 95 -45
v 120 5 -45
v 120 95 -45
v 115 95 -45
v 115 5 -45
v 115 5 -195
v 115 95 -195
v 120 95 -195
v 120 5 -195
v 115 5 -195
v 120 5 -195
v 120 5 -45
v 115 5 -45
v 115 95 -45
v 120 95 -45
v 120 95 -195
v 115 95 -195
vn -1 0 0
vn 1 0 0
vn 0 0 1
vn 0 0 -1
vn 0 -1 0
vn 0 1 0
f 193//49 194//49 195//49 196//49
f 197//50 198//50 199//50 200//50
f 201//51 202//51 203//51 204//51
f 205//52 206//52 207//52 208//52
f 209//53 210//53 211//53 212//53
f 213//54 214//54 215//54 216//54
o F4_Baffle_4
usemtl Baffles_Foamboard
v 155 95 -5
v 155 95 -155
v 155 5 -155
v 155 5 -5
v 160 5 -5
v 160 5 -155
v 160 95 -155
v 160 95 -5
v 160 5 -5
v 160 95 -5
v 155 95 -5
v 155 5 -5
v 155 5 -155
v 155 95 -155
v 160 95 -155
v 160 5 -155
v 155 5 -155
v 160 5 -155
v 160 5 -5
v 155 5 -5
v 155 95 -5
v 160 95 -5
v 160 95 -155
v 155 95 -155
vn -1 0 0
vn 1 0 0
vn 0 0 1
vn 0 0 -1
vn 0 -1 0
vn 0 1 0
f 217//55 218//55 219//55 220//55
f 221//56 222//56 223//56 224//56
f 225//57 226//57 227//57 228//57
f 229//58 230//58 231//58 232//58
f 233//59 234//59 235//59 236//59
f 237//60 238//60 239//60 240//60
o F5_Baffle_5
usemtl Baffles_Foamboard
v 195 95 -45
v 195 95 -195
v 195 5 -195
v 195 5 -45
v 200 5 -45
v 200 5 -195
v 200 95 -195
v 200 95 -45
v 200 5 -45
v 200 95 -45
v 195 95 -45
v 195 5 -45
v 195 5 -195
v 195 95 -195
v 200 95 -195
v 200 5 -195
v 195 5 -195
v 200 5 -195
v 200 5 -45
v 195 5 -45
v 195 95 -45
v 200 95 -45
v 200 95 -195
v 195 95 -195
vn -1 0 0
vn 1 0 0
vn 0 0 1
vn 0 0 -1
vn 0 -1 0
vn 0 1 0
f 241//61 242//61 243//61 244//61
f 245//62 246//62 247//62 248//62
f 249//63 250//63 251//63 252//63
f 253//64 254//64 255//64 256//64
f 257//65 258//65 259//65 260//65
f 261//66 262//66 263//66 264//66
o G_Front_lid_flap
usemtl Lid_Foamboard
v 0 300.2161 -217.9541
v 0 295.2351 -217.5183
v 0 297.8498 -187.6325
v 0 302.8308 -188.0682
v 260 302.8308 -188.0682
v 260 297.8498 -187.6325
v 260 295.2351 -217.5183
v 260 300.2161 -217.9541
v 260 302.8308 -188.0682
v 260 300.2161 -217.9541
v 0 300.2161 -217.9541
v 0 302.8308 -188.0682
v 0 297.8498 -187.6325
v 0 295.2351 -217.5183
v 260 295.2351 -217.5183
v 260 297.8498 -187.6325
v 0 297.8498 -187.6325
v 260 297.8498 -187.6325
v 260 302.8308 -188.0682
v 0 302.8308 -188.0682
v 0 300.2161 -217.9541
v 260 300.2161 -217.9541
v 260 295.2351 -217.5183
v 0 295.2351 -217.5183
vn -1 0 0
vn 1 0 0
vn 0 0.9962 -0.0872
vn 0 -0.9962 0.0872
vn 0 0.0872 0.9962
vn 0 -0.0872 -0.9962
f 265//67 266//67 267//67 268//67
f 269//68 270//68 271//68 272//68
f 273//69 274//69 275//69 276//69
f 277//70 278//70 279//70 280//70
f 281//71 282//71 283//71 284//71
f 285//72 286//72 287//72 288//72
